# This file uses centimeters as units for non-parametric coordinates.

mtllib cupboard.mtl
g default
v -1.947519 0.454484 -0.224235
v 4.498238 0.454484 -0.224235
v -1.947519 11.304876 -0.224235
v 4.498238 11.304876 -0.224235
v -1.947519 11.304876 -2.221611
v 4.498238 11.304876 -2.221611
v -1.947519 0.454484 -2.221611
v 4.498238 0.454484 -2.221611
v 1.337470 11.304876 -0.224235
v 1.337470 11.304876 -2.221611
v 1.337470 0.454484 -2.221611
v 1.337470 0.454484 -0.224235
v 1.337470 11.164668 -0.224235
v -1.947519 11.164668 -0.224235
v -1.947519 11.164668 -2.221611
v 1.337470 11.164668 -2.221611
v 4.498238 11.164668 -2.221611
v 4.498238 11.164668 -0.224235
v 1.337470 10.415471 -0.224235
v -1.947519 10.415471 -0.224235
v -1.947519 10.415471 -2.221611
v 1.337470 10.415471 -2.221611
v 4.498238 10.415471 -2.221611
v 4.498238 10.415471 -0.224235
v -1.870270 10.415471 -0.224235
v -1.870270 0.454484 -0.224235
v -1.870270 0.454484 -2.221611
v -1.870270 10.415471 -2.221611
v -1.870270 11.164668 -2.221611
v -1.870270 11.304876 -2.221611
v -1.870270 11.304876 -0.224235
v -1.870270 11.164668 -0.224235
v -1.303699 10.415471 -0.830506
v -1.303699 0.454484 -0.224235
v -1.303699 0.454484 -2.221611
v -1.303699 10.415471 -2.221611
v -1.303699 11.164668 -2.221611
v -1.303699 11.304876 -2.221611
v -1.303699 11.304876 -0.224235
v -1.303699 11.164668 -0.224235
v -1.303699 0.490944 -0.224235
v 1.337470 0.490944 -0.224235
v 4.498238 0.490944 -0.224235
v 4.498238 0.490944 -2.221611
v 1.337470 0.490944 -2.221611
v -1.303699 0.490944 -2.221611
v -1.870270 0.490944 -2.221611
v -1.947519 0.490944 -2.221611
v -1.947519 0.490944 -0.224235
v -1.870270 0.490944 -0.224235
v -1.303699 0.953549 -0.830506
v 1.337470 0.953549 -0.224235
v 4.498238 0.953549 -0.224235
v 4.498238 0.953549 -2.221611
v 1.337470 0.953549 -2.221611
v -1.303699 0.953549 -2.221611
v -1.870270 0.953549 -2.221611
v -1.947519 0.953549 -2.221611
v -1.947519 0.953549 -0.224235
v -1.870270 0.953549 -0.224235
v 4.427907 0.953549 -0.224235
v 4.427907 10.415471 -0.224235
v 4.427907 11.164668 -0.224235
v 4.427907 11.304876 -0.224235
v 4.427907 11.304876 -2.221611
v 4.427907 11.164668 -2.221611
v 4.427907 10.415471 -2.221611
v 4.427907 0.953549 -2.221611
v 4.427907 0.490944 -2.221611
v 4.427907 0.454484 -2.221611
v 4.427907 0.454484 -0.224235
v 4.427907 0.490944 -0.224235
v 4.034087 0.953549 -0.830506
v 4.034087 10.415471 -0.830506
v 4.034087 11.164668 -0.224235
v 4.034087 11.304876 -0.224235
v 4.034087 11.304876 -2.221611
v 4.034087 11.164668 -2.221611
v 4.034087 10.415471 -2.221611
v 4.034087 0.953549 -2.221611
v 4.034087 0.490944 -2.221611
v 4.034087 0.454484 -2.221611
v 4.034087 0.454484 -0.224235
v 4.034087 0.490944 -0.224235
v 1.750559 0.953549 -0.830507
v 1.750559 10.415471 -0.830506
v 1.750559 11.164668 -0.224235
v 1.750559 11.304876 -0.224235
v 1.750559 11.304876 -2.221611
v 1.750559 11.164668 -2.221611
v 1.750559 10.415471 -2.221611
v 1.750559 0.953549 -2.221611
v 1.750559 0.490944 -2.221611
v 1.750559 0.454484 -2.221611
v 1.750559 0.454484 -0.224235
v 1.750559 0.490944 -0.224235
v 0.962392 0.953549 -0.830506
v 0.962392 10.415471 -0.830506
v 0.962392 11.164668 -0.224235
v 0.962392 11.304876 -0.224235
v 0.962392 11.304876 -2.221611
v 0.962392 11.164668 -2.221611
v 0.962392 10.415471 -2.221611
v 0.962392 0.953549 -2.221611
v 0.962392 0.490944 -2.221611
v 0.962392 0.454484 -2.221611
v 0.962392 0.454484 -0.224235
v 0.962392 0.490944 -0.224235
v 2.669295 7.775822 -0.148205
v 2.669295 6.186082 -0.148205
v 2.669295 7.775822 -0.489836
v 2.669295 6.186082 -0.489836
v 2.341039 7.775822 -0.489836
v 2.341039 6.186082 -0.489836
v 2.341039 7.775822 -0.148205
v 2.341039 6.186082 -0.148205
v 2.341039 7.571300 -0.148205
v 2.669295 7.571300 -0.148205
v 2.669295 7.571300 -0.489836
v 2.341039 7.571300 -0.489836
v 2.341039 6.399047 -0.148205
v 2.669295 6.399047 -0.148205
v 2.669295 6.399047 -0.489836
v 2.341039 6.399047 -0.489836
v 2.669295 7.775822 -0.799556
v 2.669295 7.571300 -0.799556
v 2.341039 7.571300 -0.799556
v 2.341039 7.775822 -0.799556
v 2.669295 6.399047 -0.799556
v 2.341039 6.399047 -0.799556
v 2.669295 6.186082 -0.799556
v 2.341039 6.186082 -0.799556
v 0.557455 7.775448 -0.114860
v 0.557455 6.185709 -0.114860
v 0.557455 7.775448 -0.456491
v 0.557455 6.185709 -0.456491
v 0.229200 7.775448 -0.456491
v 0.229200 6.185709 -0.456491
v 0.229200 7.775448 -0.114860
v 0.229200 6.185709 -0.114860
v 0.229200 7.570926 -0.114860
v 0.557455 7.570926 -0.114860
v 0.557455 7.570926 -0.456491
v 0.229200 7.570926 -0.456491
v 0.229200 6.398673 -0.114860
v 0.557455 6.398673 -0.114860
v 0.557455 6.398673 -0.456491
v 0.229200 6.398673 -0.456491
v 0.557455 7.775448 -0.766212
v 0.557455 7.570926 -0.766212
v 0.229200 7.570926 -0.766212
v 0.229200 7.775448 -0.766212
v 0.557455 6.398673 -0.766212
v 0.229200 6.398673 -0.766212
v 0.557455 6.185709 -0.766212
v 0.229200 6.185709 -0.766212
vt 0.375000 0.000000
vt 0.625000 0.000000
vt 0.375000 0.250000
vt 0.625000 0.250000
vt 0.375000 0.500000
vt 0.625000 0.500000
vt 0.375000 0.750000
vt 0.625000 0.750000
vt 0.375000 1.000000
vt 0.625000 1.000000
vt 0.875000 0.000000
vt 0.875000 0.250000
vt 0.125000 0.000000
vt 0.125000 0.250000
vt 0.502409 0.250000
vt 0.502409 0.500000
vt 0.502409 0.750000
vt 0.502409 0.000000
vt 0.502409 1.000000
vt 0.502409 0.246770
vt 0.375000 0.246770
vt 0.125000 0.246770
vt 0.375000 0.503230
vt 0.502409 0.503230
vt 0.625000 0.503230
vt 0.875000 0.246770
vt 0.625000 0.246770
vt 0.502409 0.229508
vt 0.375000 0.229508
vt 0.125000 0.229508
vt 0.375000 0.520492
vt 0.502409 0.520492
vt 0.625000 0.520492
vt 0.875000 0.229508
vt 0.625000 0.229508
vt 0.377996 0.229508
vt 0.377996 0.000000
vt 0.377996 1.000000
vt 0.377996 0.750000
vt 0.377996 0.520492
vt 0.377996 0.503230
vt 0.377996 0.500000
vt 0.377996 0.250000
vt 0.377996 0.246770
vt 0.399971 0.229508
vt 0.399971 0.000000
vt 0.399971 1.000000
vt 0.399971 0.750000
vt 0.399971 0.520492
vt 0.399971 0.503230
vt 0.399971 0.500000
vt 0.399971 0.250000
vt 0.399971 0.246770
vt 0.399971 0.000840
vt 0.502409 0.000840
vt 0.625000 0.000840
vt 0.625000 0.749160
vt 0.875000 0.000840
vt 0.502409 0.749160
vt 0.399971 0.749160
vt 0.377996 0.749160
vt 0.125000 0.000840
vt 0.375000 0.749160
vt 0.375000 0.000840
vt 0.377996 0.000840
vt 0.399971 0.011499
vt 0.502409 0.011499
vt 0.625000 0.011499
vt 0.625000 0.738501
vt 0.875000 0.011499
vt 0.502409 0.738501
vt 0.399971 0.738501
vt 0.377996 0.738501
vt 0.125000 0.011499
vt 0.375000 0.738501
vt 0.375000 0.011499
vt 0.377996 0.011499
vt 0.622272 0.011499
vt 0.622272 0.229508
vt 0.622272 0.246770
vt 0.622272 0.250000
vt 0.622272 0.500000
vt 0.622272 0.503230
vt 0.622272 0.520492
vt 0.622272 0.738501
vt 0.622272 0.749160
vt 0.622272 0.750000
vt 0.622272 0.000000
vt 0.622272 1.000000
vt 0.622272 0.000840
vt 0.606998 0.011499
vt 0.606998 0.229508
vt 0.606998 0.246770
vt 0.606998 0.250000
vt 0.606998 0.500000
vt 0.606998 0.503230
vt 0.606998 0.520492
vt 0.606998 0.738501
vt 0.606998 0.749160
vt 0.606998 0.750000
vt 0.606998 0.000000
vt 0.606998 1.000000
vt 0.606998 0.000840
vt 0.518431 0.011499
vt 0.518431 0.229508
vt 0.518431 0.246770
vt 0.518431 0.250000
vt 0.518431 0.500000
vt 0.518431 0.503230
vt 0.518431 0.520492
vt 0.518431 0.738501
vt 0.518431 0.749160
vt 0.518431 0.750000
vt 0.518431 0.000000
vt 0.518431 1.000000
vt 0.518431 0.000840
vt 0.487861 0.011499
vt 0.487861 0.229508
vt 0.487861 0.246770
vt 0.487861 0.250000
vt 0.487861 0.500000
vt 0.487861 0.503230
vt 0.487861 0.520492
vt 0.487861 0.738501
vt 0.487861 0.749160
vt 0.487861 0.750000
vt 0.487861 0.000000
vt 0.487861 1.000000
vt 0.487861 0.000840
vt 0.375000 0.000000
vt 0.407163 0.000000
vt 0.407163 0.250000
vt 0.375000 0.250000
vt 0.375000 0.250000
vt 0.407163 0.250000
vt 0.407163 0.500000
vt 0.375000 0.500000
vt 0.375000 0.500000
vt 0.407163 0.500000
vt 0.407163 0.750000
vt 0.375000 0.750000
vt 0.407163 1.000000
vt 0.375000 1.000000
vt 0.625000 0.000000
vt 0.875000 0.000000
vt 0.875000 0.250000
vt 0.625000 0.250000
vt 0.125000 0.000000
vt 0.125000 0.250000
vt 0.591509 0.750000
vt 0.591509 1.000000
vt 0.591509 0.000000
vt 0.591509 0.250000
vt 0.591509 0.500000
vt 0.625000 0.750000
vt 0.625000 1.000000
vt 0.591509 0.500000
vt 0.591509 0.250000
vt 0.625000 0.250000
vt 0.625000 0.500000
vt 0.625000 0.500000
vt 0.375000 0.000000
vt 0.407163 0.000000
vt 0.407163 0.250000
vt 0.375000 0.250000
vt 0.375000 0.250000
vt 0.407163 0.250000
vt 0.407163 0.500000
vt 0.375000 0.500000
vt 0.375000 0.500000
vt 0.407163 0.500000
vt 0.407163 0.750000
vt 0.375000 0.750000
vt 0.407163 1.000000
vt 0.375000 1.000000
vt 0.625000 0.000000
vt 0.875000 0.000000
vt 0.875000 0.250000
vt 0.625000 0.250000
vt 0.125000 0.000000
vt 0.125000 0.250000
vt 0.591509 0.750000
vt 0.591509 1.000000
vt 0.591509 0.000000
vt 0.591509 0.250000
vt 0.591509 0.500000
vt 0.625000 0.750000
vt 0.625000 1.000000
vt 0.591509 0.500000
vt 0.591509 0.250000
vt 0.625000 0.250000
vt 0.625000 0.500000
vt 0.625000 0.500000
vn 0.203218 0.051590 0.977774
vn -0.216752 0.053487 0.974760
vn -0.213559 -0.052526 0.975517
vn 0.200286 -0.050743 0.978422
vn 0.000000 1.000000 0.000000
vn 0.000000 1.000000 0.000000
vn 0.000000 1.000000 0.000000
vn 0.000000 1.000000 0.000000
vn 0.000000 0.000000 -1.000000
vn 0.000000 0.000000 -1.000000
vn -0.000000 0.000000 -1.000000
vn 0.000000 0.000000 -1.000000
vn 0.000000 -1.000000 0.000000
vn 0.000000 -1.000000 0.000000
vn 0.000000 -1.000000 0.000000
vn 0.000000 -1.000000 0.000000
vn 1.000000 0.000000 0.000000
vn 1.000000 0.000000 0.000000
vn 1.000000 0.000000 0.000000
vn 1.000000 0.000000 0.000000
vn -1.000000 0.000000 0.000000
vn -1.000000 0.000000 0.000000
vn -1.000000 0.000000 0.000000
vn -1.000000 0.000000 0.000000
vn 0.000000 1.000000 0.000000
vn 0.000000 1.000000 0.000000
vn 0.000000 1.000000 0.000000
vn 0.000000 1.000000 0.000000
vn 0.000000 0.000000 -1.000000
vn 0.000000 0.000000 -1.000000
vn -0.000000 0.000000 -1.000000
vn -0.000000 0.000000 -1.000000
vn 0.000000 -1.000000 0.000000
vn 0.000000 -1.000000 0.000000
vn 0.000000 -1.000000 0.000000
vn 0.000000 -1.000000 0.000000
vn 0.209488 -0.052192 0.976417
vn 0.000000 -0.029674 0.999560
vn 0.000000 0.030530 0.999534
vn 0.212609 0.053128 0.975692
vn 0.076611 -0.521388 0.849874
vn -0.081409 -0.533230 0.842044
vn 0.000000 0.000000 1.000000
vn 0.000000 0.000000 1.000000
vn -1.000000 0.000000 0.000000
vn -1.000000 0.000000 0.000000
vn -1.000000 0.000000 0.000000
vn -1.000000 0.000000 0.000000
vn 0.000000 0.000000 -1.000000
vn 0.000000 0.000000 -1.000000
vn 0.000000 0.000000 -1.000000
vn 0.000000 0.000000 -1.000000
vn 0.000000 0.000000 -1.000000
vn 0.000000 0.000000 -1.000000
vn 0.000000 0.000000 -1.000000
vn 0.000000 0.000000 -1.000000
vn 1.000000 0.000000 0.000000
vn 1.000000 0.000000 0.000000
vn 1.000000 0.000000 0.000000
vn 1.000000 0.000000 0.000000
vn 0.000000 0.000000 1.000000
vn 0.000000 -0.322607 0.946533
vn 0.079882 -0.531001 0.843597
vn 0.000000 0.000001 1.000000
vn 0.000000 0.000000 1.000000
vn 0.676817 0.019780 0.735886
vn 0.671752 -0.019346 0.740523
vn 0.000000 0.000000 1.000000
vn 0.000000 -1.000000 0.000000
vn 0.000000 -1.000000 0.000000
vn 0.000000 -1.000000 0.000000
vn 0.000000 -1.000000 0.000000
vn 0.000000 0.000000 -1.000000
vn 0.000000 0.000000 -1.000000
vn 0.000000 0.000000 -1.000000
vn 0.000000 0.000000 -1.000000
vn 0.000000 0.000000 -1.000000
vn 0.000000 0.000000 -1.000000
vn 0.000000 0.000000 -1.000000
vn 0.000000 0.000000 -1.000000
vn 0.000000 1.000000 0.000000
vn 0.000000 1.000000 0.000000
vn 0.000000 1.000000 0.000000
vn 0.000000 1.000000 0.000000
vn 0.000000 0.000000 1.000000
vn 0.355132 -0.268564 0.895408
vn 0.000000 0.000000 1.000000
vn 0.000000 0.000000 1.000000
vn 0.000000 0.000000 1.000000
vn 0.000000 0.000000 1.000000
vn -0.070381 0.746593 0.661548
vn 0.066799 0.736250 0.673405
vn 0.069172 0.744671 0.663838
vn -0.000000 0.519143 0.854688
vn 0.000000 0.000000 1.000000
vn 0.000000 0.000000 1.000000
vn 1.000000 0.000000 0.000000
vn 1.000000 0.000000 0.000000
vn 1.000000 0.000000 0.000000
vn 1.000000 0.000000 0.000000
vn 0.000000 -0.000001 -1.000000
vn 0.000000 -0.000000 -1.000000
vn -0.000000 -0.000000 -1.000000
vn -0.000000 -0.000002 -1.000000
vn 0.000000 0.000000 -1.000000
vn -0.000000 0.000000 -1.000000
vn 0.000000 0.000000 -1.000000
vn 0.000000 0.000000 -1.000000
vn 0.000000 0.000000 -1.000000
vn 0.000000 0.000000 -1.000000
vn 0.000000 0.000000 -1.000000
vn 0.000000 0.000000 -1.000000
vn -1.000000 0.000000 0.000000
vn -1.000000 0.000000 0.000000
vn -1.000000 0.000000 0.000000
vn -1.000000 0.000000 0.000000
vn 0.000000 0.000000 1.000000
vn 0.000000 0.000000 1.000000
vn 0.359214 0.439944 0.823052
vn 0.000000 0.000000 1.000000
vn 0.000000 0.000000 1.000000
vn -0.782778 -0.015670 0.622103
vn -0.786930 0.015986 0.616835
vn 0.000000 0.000000 1.000000
vn 0.000000 0.000000 1.000000
vn -0.467249 -0.245612 0.849325
vn 0.000000 0.000000 1.000000
vn 0.000000 0.000000 1.000000
vn 0.000000 1.000000 0.000000
vn 0.000000 1.000000 0.000000
vn 0.000000 1.000000 0.000000
vn 0.000000 1.000000 0.000000
vn 0.000000 0.000000 -1.000000
vn 0.000000 0.000000 -1.000000
vn 0.000000 0.000000 -1.000000
vn 0.000000 0.000000 -1.000000
vn 0.000000 0.000000 -1.000000
vn 0.000000 0.000000 -1.000000
vn 0.000000 0.000000 -1.000000
vn 0.000000 0.000000 -1.000000
vn 0.000000 0.000000 -1.000000
vn 0.000000 0.000000 -1.000000
vn 0.000000 0.000000 -1.000000
vn 0.000000 0.000000 -1.000000
vn 0.000000 -1.000000 0.000000
vn 0.000000 -1.000000 0.000000
vn 0.000000 -1.000000 0.000000
vn 0.000000 -1.000000 0.000000
vn 0.000000 0.000000 1.000000
vn -0.473869 0.403409 0.782758
vn 0.000000 0.000000 1.000000
vn 0.000000 0.000000 1.000000
vn -0.210863 -0.052385 0.976111
vn -0.214011 0.053336 0.975374
vn -0.080378 -0.532233 0.842773
vn -0.000000 0.000001 1.000000
vn 0.000000 1.000000 0.000000
vn 0.000000 1.000000 0.000000
vn -0.000000 0.000000 -1.000000
vn -0.000000 0.000000 -1.000000
vn -0.000000 0.000000 -1.000000
vn -0.000000 0.000000 -1.000000
vn -0.000000 -0.000000 -1.000000
vn -0.000000 -0.000001 -1.000000
vn 0.000000 -1.000000 0.000000
vn 0.000000 -1.000000 0.000000
vn -0.069541 0.745737 0.662602
vn -0.000000 0.000000 1.000000
vn 1.000000 0.000000 0.000000
vn 1.000000 0.000000 0.000000
vn 1.000000 0.000000 0.000000
vn 1.000000 0.000000 0.000000
vn 0.000000 0.000000 -1.000000
vn 0.000000 0.000000 -1.000000
vn 0.000000 0.000000 -1.000000
vn 0.000000 0.000000 -1.000000
vn -1.000000 0.000000 0.000000
vn -1.000000 0.000000 0.000000
vn -1.000000 0.000000 0.000000
vn -1.000000 0.000000 0.000000
vn 0.000000 0.000000 1.000000
vn 0.000000 0.000000 1.000000
vn 0.000000 0.000000 1.000000
vn 0.000000 0.000000 1.000000
vn 0.000000 -1.000000 0.000000
vn 0.000000 -1.000000 0.000000
vn 0.000000 -1.000000 0.000000
vn 0.000000 -1.000000 0.000000
vn 0.000000 1.000000 0.000000
vn 0.000000 1.000000 0.000000
vn 0.000000 1.000000 0.000000
vn 0.000000 1.000000 0.000000
vn 0.000000 0.000000 1.000000
vn 0.000000 0.000000 1.000000
vn 1.000000 0.000000 0.000000
vn 1.000000 0.000000 0.000000
vn 0.000000 0.000000 -1.000000
vn 0.000000 0.000000 -1.000000
vn 0.000000 0.000000 -1.000000
vn 0.000000 0.000000 -1.000000
vn -1.000000 0.000000 0.000000
vn -1.000000 0.000000 0.000000
vn 0.000000 0.000000 1.000000
vn 0.000000 0.000000 1.000000
vn 1.000000 0.000000 0.000000
vn 1.000000 0.000000 0.000000
vn 0.000000 0.000000 -1.000000
vn 0.000000 0.000000 -1.000000
vn 0.000000 0.000000 -1.000000
vn 0.000000 0.000000 -1.000000
vn -1.000000 0.000000 0.000000
vn -1.000000 0.000000 0.000000
vn 1.000000 0.000000 0.000000
vn 1.000000 0.000000 0.000000
vn 0.000000 -1.000000 0.000000
vn 0.000000 -1.000000 0.000000
vn 0.000000 -1.000000 0.000000
vn 0.000000 -1.000000 0.000000
vn -1.000000 0.000000 0.000000
vn -1.000000 0.000000 0.000000
vn 0.000000 1.000000 0.000000
vn 0.000000 1.000000 0.000000
vn 0.000000 1.000000 0.000000
vn 0.000000 1.000000 0.000000
vn 0.000000 1.000000 0.000000
vn 0.000000 1.000000 0.000000
vn 1.000000 0.000000 0.000000
vn 1.000000 0.000000 0.000000
vn 0.000000 -1.000000 0.000000
vn 0.000000 -1.000000 0.000000
vn -1.000000 0.000000 0.000000
vn -1.000000 0.000000 0.000000
vn 1.000000 0.000000 0.000000
vn 1.000000 0.000000 0.000000
vn 1.000000 0.000000 0.000000
vn 1.000000 0.000000 0.000000
vn 0.000000 0.000000 -1.000000
vn 0.000000 0.000000 -1.000000
vn 0.000000 0.000000 -1.000000
vn 0.000000 0.000000 -1.000000
vn -1.000000 0.000000 0.000000
vn -1.000000 0.000000 0.000000
vn -1.000000 0.000000 0.000000
vn -1.000000 0.000000 0.000000
vn 0.000000 0.000000 1.000000
vn 0.000000 0.000000 1.000000
vn 0.000000 0.000000 1.000000
vn 0.000000 0.000000 1.000000
vn 0.000000 -1.000000 0.000000
vn 0.000000 -1.000000 0.000000
vn 0.000000 -1.000000 0.000000
vn 0.000000 -1.000000 0.000000
vn 0.000000 1.000000 0.000000
vn 0.000000 1.000000 0.000000
vn 0.000000 1.000000 0.000000
vn 0.000000 1.000000 0.000000
vn 0.000000 0.000000 1.000000
vn 0.000000 0.000000 1.000000
vn 1.000000 0.000000 0.000000
vn 1.000000 0.000000 0.000000
vn 0.000000 0.000000 -1.000000
vn 0.000000 0.000000 -1.000000
vn 0.000000 0.000000 -1.000000
vn 0.000000 0.000000 -1.000000
vn -1.000000 0.000000 0.000000
vn -1.000000 0.000000 0.000000
vn 0.000000 0.000000 1.000000
vn 0.000000 0.000000 1.000000
vn 1.000000 0.000000 0.000000
vn 1.000000 0.000000 0.000000
vn 0.000000 0.000000 -1.000000
vn 0.000000 0.000000 -1.000000
vn 0.000000 0.000000 -1.000000
vn 0.000000 0.000000 -1.000000
vn -1.000000 0.000000 0.000000
vn -1.000000 0.000000 0.000000
vn 1.000000 0.000000 0.000000
vn 1.000000 0.000000 0.000000
vn 0.000000 -1.000000 0.000000
vn 0.000000 -1.000000 0.000000
vn 0.000000 -1.000000 0.000000
vn 0.000000 -1.000000 0.000000
vn -1.000000 0.000000 0.000000
vn -1.000000 0.000000 0.000000
vn 0.000000 1.000000 0.000000
vn 0.000000 1.000000 0.000000
vn 0.000000 1.000000 0.000000
vn 0.000000 1.000000 0.000000
vn 0.000000 1.000000 0.000000
vn 0.000000 1.000000 0.000000
vn 1.000000 0.000000 0.000000
vn 1.000000 0.000000 0.000000
vn 0.000000 -1.000000 0.000000
vn 0.000000 -1.000000 0.000000
vn -1.000000 0.000000 0.000000
vn -1.000000 0.000000 0.000000
s 1
g polySurface1
usemtl anisotropic4SG
f 51/66/1 97/117/2 98/118/3 33/45/4
s 2
f 39/52/5 100/120/6 101/121/7 38/51/8
s 3
f 36/49/9 103/123/10 104/124/11 56/72/12
s 4
f 35/48/13 106/126/14 107/128/15 34/47/16
s 5
f 53/68/17 54/70/18 23/34/19 24/35/20
s 6
f 58/74/21 59/76/22 20/29/23 21/30/24
s 2
f 9/15/25 88/107/26 89/108/27 10/16/28
s 3
f 55/71/29 22/32/30 91/110/31 92/111/32
s 4
f 12/19/33 11/17/34 94/113/35 95/115/36
s 1
f 86/105/37 19/28/38 52/67/39 85/104/40
f 40/53/41 99/119/42 100/120/43 39/52/44
s 6
f 15/22/45 14/21/46 3/3/47 5/14/48
s 3
f 38/51/49 101/121/50 102/122/51 37/50/52
f 90/109/53 16/24/54 10/16/55 89/108/56
s 5
f 18/27/57 17/26/58 6/12/59 4/4/60
s 1
f 9/15/61 13/20/62 87/106/63 88/107/64
f 40/53/41 33/45/4 98/118/3 99/119/42
s 6
f 21/30/24 20/29/23 14/21/46 15/22/45
s 3
f 37/50/52 102/122/51 103/123/10 36/49/9
f 91/110/31 22/32/30 16/24/54 90/109/53
s 5
f 24/35/20 23/34/19 17/26/58 18/27/57
s 1
f 87/106/63 13/20/62 19/28/38 86/105/37
f 59/76/65 60/77/66 25/36/67 20/29/68
s 4
f 7/7/69 27/39/70 26/38/71 1/9/72
s 3
f 21/31/73 28/40/74 57/73/75 58/75/76
f 15/23/77 29/41/78 28/40/74 21/31/73
f 5/5/79 30/42/80 29/41/78 15/23/77
s 2
f 3/3/81 31/43/82 30/42/83 5/5/84
s 1
f 14/21/85 32/44/86 31/43/87 3/3/88
f 20/29/68 25/36/67 32/44/86 14/21/85
f 60/77/66 51/66/1 33/45/4 25/36/67
s 4
f 27/39/70 35/48/13 34/47/16 26/38/71
s 3
f 28/40/74 36/49/9 56/72/12 57/73/75
f 29/41/78 37/50/52 36/49/9 28/40/74
f 30/42/80 38/51/49 37/50/52 29/41/78
s 2
f 31/43/82 39/52/5 38/51/8 30/42/83
s 1
f 32/44/86 40/53/41 39/52/44 31/43/87
f 32/44/86 25/36/67 33/45/4 40/53/41
f 34/46/89 107/127/90 108/129/91 41/54/92
f 96/116/93 42/55/94 12/18/95 95/114/96
s 5
f 2/2/97 8/11/98 44/58/99 43/56/100
s 3
f 11/17/101 45/59/102 93/112/103 94/113/104
f 46/60/105 105/125/106 106/126/107 35/48/108
f 47/61/109 46/60/105 35/48/108 27/39/110
f 48/63/111 47/61/109 27/39/110 7/7/112
s 6
f 7/13/113 1/1/114 49/64/115 48/62/116
s 1
f 1/1/117 26/37/118 50/65/119 49/64/120
f 26/37/118 34/46/89 41/54/92 50/65/119
f 41/54/92 108/129/91 97/117/2 51/66/1
f 96/116/93 85/104/40 52/67/39 42/55/94
s 5
f 43/56/100 44/58/99 54/70/18 53/68/17
s 3
f 45/59/102 55/71/29 92/111/32 93/112/103
f 56/72/12 104/124/11 105/125/106 46/60/105
f 57/73/75 56/72/12 46/60/105 47/61/109
f 58/75/76 57/73/75 47/61/109 48/63/111
s 6
f 48/62/116 49/64/115 59/76/22 58/74/21
s 1
f 49/64/120 50/65/119 60/77/66 59/76/65
f 50/65/119 41/54/92 51/66/1 60/77/66
f 24/35/121 62/79/122 61/78/123 53/68/124
f 18/27/125 63/80/126 62/79/122 24/35/121
f 64/81/127 63/80/126 18/27/125 4/4/128
s 2
f 65/82/129 64/81/130 4/4/131 6/6/132
s 3
f 17/25/133 66/83/134 65/82/135 6/6/136
f 23/33/137 67/84/138 66/83/134 17/25/133
f 68/85/139 67/84/138 23/33/137 54/69/140
f 69/86/141 68/85/139 54/69/140 44/57/142
f 70/87/143 69/86/141 44/57/142 8/8/144
s 4
f 71/89/145 70/87/146 8/8/147 2/10/148
s 1
f 43/56/149 72/90/150 71/88/151 2/2/152
f 53/68/124 61/78/123 72/90/150 43/56/149
f 62/79/122 74/92/153 73/91/154 61/78/123
f 63/80/126 75/93/155 74/92/153 62/79/122
f 76/94/156 75/93/155 63/80/126 64/81/127
s 2
f 77/95/157 76/94/158 64/81/130 65/82/129
s 3
f 66/83/134 78/96/159 77/95/160 65/82/135
f 67/84/138 79/97/161 78/96/159 66/83/134
f 80/98/162 79/97/161 67/84/138 68/85/139
f 81/99/163 80/98/162 68/85/139 69/86/141
f 82/100/164 81/99/163 69/86/141 70/87/143
s 4
f 83/102/165 82/100/166 70/87/146 71/89/145
s 1
f 72/90/150 84/103/167 83/101/168 71/88/151
f 72/90/150 61/78/123 73/91/154 84/103/167
f 74/92/153 86/105/37 85/104/40 73/91/154
f 75/93/155 87/106/63 86/105/37 74/92/153
f 88/107/64 87/106/63 75/93/155 76/94/156
s 2
f 89/108/27 88/107/26 76/94/158 77/95/157
s 3
f 78/96/159 90/109/53 89/108/56 77/95/160
f 79/97/161 91/110/31 90/109/53 78/96/159
f 92/111/32 91/110/31 79/97/161 80/98/162
f 93/112/103 92/111/32 80/98/162 81/99/163
f 94/113/104 93/112/103 81/99/163 82/100/164
s 4
f 95/115/36 94/113/35 82/100/166 83/102/165
s 1
f 84/103/167 96/116/93 95/114/96 83/101/168
f 84/103/167 73/91/154 85/104/40 96/116/93
f 97/117/2 52/67/39 19/28/38 98/118/3
f 99/119/42 98/118/3 19/28/38 13/20/62
f 100/120/43 99/119/42 13/20/62 9/15/61
s 2
f 101/121/7 100/120/6 9/15/25 10/16/28
s 3
f 102/122/51 101/121/50 10/16/55 16/24/54
f 103/123/10 102/122/51 16/24/54 22/32/30
f 104/124/11 103/123/10 22/32/30 55/71/29
f 105/125/106 104/124/11 55/71/29 45/59/102
f 106/126/107 105/125/106 45/59/102 11/17/101
s 4
f 107/128/15 106/126/14 11/17/34 12/19/33
s 1
f 108/129/91 107/127/90 12/18/95 42/55/94
f 97/117/2 108/129/91 42/55/94 52/67/39
s 18
usemtl anisotropic3SG
f 109/130/169 118/131/170 119/132/171 111/133/172
s off
f 125/134/173 126/135/174 127/136/175 128/137/176
s 19
f 113/138/177 120/139/178 117/140/179 115/141/180
s 20
f 115/141/181 117/140/182 118/142/183 109/143/184
s 21
f 110/144/185 116/145/186 114/146/187 112/147/188
s 22
f 115/148/189 109/130/190 111/133/191 113/149/192
s 20
f 117/140/182 121/150/193 122/151/194 118/142/183
s 18
f 119/132/171 118/131/170 122/152/195 123/153/196
s off
f 120/139/197 119/132/198 123/153/199 124/154/200
s 19
f 117/140/179 120/139/178 124/154/201 121/150/202
s 20
f 121/150/193 116/155/203 110/156/204 122/151/194
s 18
f 123/153/196 122/152/195 110/144/205 112/147/206
s off
f 130/157/207 129/158/208 131/159/209 132/160/210
s 19
f 121/150/202 124/154/201 114/161/211 116/155/212
s 18
f 111/133/172 119/132/171 126/135/213 125/134/214
s off
f 119/132/215 120/139/216 127/136/217 126/135/218
s 19
f 120/139/178 113/138/177 128/137/219 127/136/220
s 22
f 113/138/192 111/133/191 125/134/221 128/137/222
s off
f 124/154/223 123/153/224 129/158/225 130/157/226
s 18
f 123/153/196 112/147/206 131/159/227 129/158/228
s 21
f 112/147/188 114/161/187 132/160/229 131/159/230
s 19
f 114/161/211 124/154/201 130/157/231 132/160/232
s 23
f 133/162/233 142/163/234 143/164/235 135/165/236
s off
f 149/166/237 150/167/238 151/168/239 152/169/240
s 24
f 137/170/241 144/171/242 141/172/243 139/173/244
s 25
f 139/173/245 141/172/246 142/174/247 133/175/248
s 26
f 134/176/249 140/177/250 138/178/251 136/179/252
s 27
f 139/180/253 133/162/254 135/165/255 137/181/256
s 25
f 141/172/246 145/182/257 146/183/258 142/174/247
s 23
f 143/164/235 142/163/234 146/184/259 147/185/260
s off
f 144/171/261 143/164/262 147/185/263 148/186/264
s 24
f 141/172/243 144/171/242 148/186/265 145/182/266
s 25
f 145/182/257 140/187/267 134/188/268 146/183/258
s 23
f 147/185/260 146/184/259 134/176/269 136/179/270
s off
f 154/189/271 153/190/272 155/191/273 156/192/274
s 24
f 145/182/266 148/186/265 138/193/275 140/187/276
s 23
f 135/165/236 143/164/235 150/167/277 149/166/278
s off
f 143/164/279 144/171/280 151/168/281 150/167/282
s 24
f 144/171/242 137/170/241 152/169/283 151/168/284
s 27
f 137/170/256 135/165/255 149/166/285 152/169/286
s off
f 148/186/287 147/185/288 153/190/289 154/189/290
s 23
f 147/185/260 136/179/270 155/191/291 153/190/292
s 26
f 136/179/252 138/193/251 156/192/293 155/191/294
s 24
f 138/193/275 148/186/265 154/189/295 156/192/296
